<?xml version="1.0" encoding="utf-8" standalone="yes"?>
<!DOCTYPE svg PUBLIC "-//W3C//DTD SVG 1.1//EN" "http://www.w3.org/Graphics/SVG/1.1/DTD/svg11.dtd">
<svg width="364" height="367" viewBox="0 0 364 367" style="fill:none;stroke:none;fill-rule:evenodd;clip-rule:evenodd;stroke-linecap:round;stroke-linejoin:round;stroke-miterlimit:1.5;" version="1.1" xmlns="http://www.w3.org/2000/svg" xmlns:xlink="http://www.w3.org/1999/xlink"><g id="items" style="isolation: isolate"><g id="blend" style="mix-blend-mode:screen"><g id="g-root-0.cr-big_cr_8xs0tiabf213-fill" data-item-order="-113628" data-item-id="0.cr-big_cr_8xs0tiabf213" data-item-class="Shape Stroke Fill ScenePart Part Indexed_0" data-item-index="0" data-renderer-id="0" transform="translate(113.30621337890625, 118.5596923828125)"></g><g id="g-root-5.cu_sy_1hegyeeabf0uc-fill" data-item-order="-113626" data-item-id="5.cu_sy_1hegyeeabf0uc" data-item-class="ScenePart Part Indexed Fill Stroke" data-item-index="5" data-renderer-id="0" transform="translate(36.36199951171875, 4)"></g><g id="g-root-4.cu_sy_40ftyabf1u3-fill" data-item-order="-113624" data-item-id="4.cu_sy_40ftyabf1u3" data-item-class="ScenePart Part Indexed Fill Stroke" data-item-index="4" data-renderer-id="0" transform="translate(4, 124.6209716796875)"></g><g id="g-root-3.cu_sy_mahhd2abf2ma-fill" data-item-order="-113622" data-item-id="3.cu_sy_mahhd2abf2ma" data-item-class="ScenePart Part Indexed Fill Stroke" data-item-index="3" data-renderer-id="0" transform="translate(70.70529174804688, 227.115966796875)"></g><g id="g-root-2.cu_sy_141rhuuabf095-fill" data-item-order="-113620" data-item-id="2.cu_sy_141rhuuabf095" data-item-class="ScenePart Part Indexed Fill Stroke" data-item-index="2" data-renderer-id="0" transform="translate(208.59356689453125, 134.085693359375)"></g><g id="g-root-1.cu_sy_1q88jdyabf11c-fill" data-item-order="-113618" data-item-id="1.cu_sy_1q88jdyabf11c" data-item-class="ScenePart Part Indexed Indexed_1 Fill Stroke" data-item-index="1" data-renderer-id="0" transform="translate(173.3319091796875, 34.5596923828125)"></g><g id="g-root-1_v30ahyab6kni-fill" data-item-order="0" data-item-id="1_v30ahyab6kni" data-item-class="Icon Stroke SceneTarget Indexed InsideFill" data-item-index="5" data-renderer-id="0" transform="translate(89.37298583984375, 72.02490234375)"></g><g id="g-root-refr_1430mcmab6mfe-fill" data-item-order="0" data-item-id="refr_1430mcmab6mfe" data-item-class="Icon Stroke SceneTarget Indexed Indexed_1 InsideFill" data-item-index="1" data-renderer-id="0" transform="translate(209.28106689453125, 72.0550537109375)"></g><g id="g-root-penc_8wj8yuab2fpf-fill" data-item-order="0" data-item-id="penc_8wj8yuab2fpf" data-item-class="Icon Stroke SceneTarget InsideFill" data-item-index="0" data-renderer-id="0" transform="translate(137.30621337890625, 142.5557861328125)"></g><g id="g-root-html_1cvj95yab6kgf-fill" data-item-order="0" data-item-id="html_1cvj95yab6kgf" data-item-class="Icon Stroke SceneTarget Indexed InsideFill" data-item-index="4" data-renderer-id="0" transform="translate(52.29052734375, 186.0550537109375)"></g><g id="g-root-2_18gyp7qab6nep-fill" data-item-order="0" data-item-id="2_18gyp7qab6nep" data-item-class="Icon Stroke SceneTarget Indexed InsideFill" data-item-index="2" data-renderer-id="0" transform="translate(246.30609130859375, 186.103759765625)"></g><g id="g-root-3_ddlp9iab6m0w-fill" data-item-order="0" data-item-id="3_ddlp9iab6m0w" data-item-class="Icon Stroke SceneTarget Indexed InsideFill" data-item-index="3" data-renderer-id="0" transform="translate(149.280517578125, 256.5596923828125)"></g><g id="g-root-0.cr-big_cr_8xs0tiabf213-stroke" data-item-order="-113628" data-item-id="0.cr-big_cr_8xs0tiabf213" data-item-class="Shape Stroke Fill ScenePart Part Indexed_0" data-item-index="0" data-renderer-id="0" transform="translate(113.30621337890625, 118.5596923828125)"><g id="0.cr-big_cr_8xs0tiabf213-stroke" fill="none" stroke-linecap="round" stroke-linejoin="round" stroke-miterlimit="4" stroke="#FFFFFF" stroke-width="4"><g><path d="M 10 70C 11.4 86.3 16.4 101.4 27.2 112C 38.2 122.9 53.2 130.3 70 130C 85.4 129.7 100.1 124.8 110.1 114.6C 121.6 102.9 130.4 87.7 130 70C 129.3 36.9 103.1 11.2 70 10C 54.1 9.4 39.6 16.3 28.8 26.4C 17.2 37.2 9.7 52.8 10 70M 10 70C 10.000003 103.137088 36.862918 130.000003 70.000003 130.000003C 103.137088 130.000003 130.000003 103.137088 130.000003 70.000003C 130.000003 36.862918 103.137088 10.000003 70.000003 10.000003C 36.862918 10.000003 10.000003 36.862918 10.000003 70.000003"></path></g></g></g><g id="g-root-5.cu_sy_1hegyeeabf0uc-stroke" data-item-order="-113626" data-item-id="5.cu_sy_1hegyeeabf0uc" data-item-class="ScenePart Part Indexed Fill Stroke" data-item-index="5" data-renderer-id="0" transform="translate(36.36199951171875, 4)"><g id="5.cu_sy_1hegyeeabf0uc-stroke" fill="none" stroke-linecap="round" stroke-linejoin="round" stroke-miterlimit="4" stroke="#FFFFFF" stroke-width="4"><g><path d="M 89.844214 165.959662C 63.244214 157.359662 36.044214 150.259662 10.044214 140.059662C 20.744214 107.659662 37.944214 78.759662 61.844214 57.659662C 86.644214 35.859662 114.944214 17.759662 146.944214 9.959662C 147.244214 29.459662 145.944214 48.959662 146.944214 68.459662C 147.944214 87.159662 145.844214 105.859662 146.944214 124.559662C 121.644214 124.259662 99.244214 141.059662 89.844214 165.959662M 89.8887 165.9942L 10 140.0368C 31.4915 73.9212 84.472 26.839 146.9408 10L 146.9309 124.5434C 121.6473 124.5439 98.1342 140.6532 89.8887 165.9942Z"></path></g></g></g><g id="g-root-4.cu_sy_40ftyabf1u3-stroke" data-item-order="-113624" data-item-id="4.cu_sy_40ftyabf1u3" data-item-class="ScenePart Part Indexed Fill Stroke" data-item-index="4" data-renderer-id="0" transform="translate(4, 124.6209716796875)"><g id="4.cu_sy_40ftyabf1u3-stroke" fill="none" stroke-linecap="round" stroke-linejoin="round" stroke-miterlimit="4" stroke="#FFFFFF" stroke-width="4"><g><path d="M 144.006213 112.43869C 128.706213 135.93869 110.106213 157.03869 94.606213 180.43869C 79.506213 170.43869 66.506213 158.03869 56.406213 143.93869C 47.506213 131.63869 39.806213 118.73869 32.406213 105.83869C 24.306213 91.43869 19.706213 75.23869 16.906213 59.03869C 14.006213 42.83869 12.206213 26.43869 13.306213 10.03869C 32.106213 17.63869 51.506213 23.73869 71.106213 28.83869C 88.506213 33.23869 104.806213 41.43869 122.206213 45.43869C 118.206213 57.13869 118.006213 69.93869 121.906213 81.43869C 126.006213 93.33869 132.406213 105.53869 144.006213 112.43869M 144.018201 112.4647L 94.644301 180.422C 38.405901 139.5516 10.000001 74.6149 13.289001 10L 122.223201 45.4053C 114.410601 69.4515 122.465501 96.7919 144.018201 112.4647Z"></path></g></g></g><g id="g-root-3.cu_sy_mahhd2abf2ma-stroke" data-item-order="-113622" data-item-id="3.cu_sy_mahhd2abf2ma" data-item-class="ScenePart Part Indexed Fill Stroke" data-item-index="3" data-renderer-id="0" transform="translate(70.70529174804688, 227.115966796875)"><g id="3.cu_sy_mahhd2abf2ma-stroke" fill="none" stroke-linecap="round" stroke-linejoin="round" stroke-miterlimit="4" stroke="#FFFFFF" stroke-width="4"><g><path d="M 147.800922 10.043787C 156.300922 20.443787 163.100922 32.243787 171.600922 42.743787C 180.800922 54.043787 188.500922 66.343787 197.200922 77.943787C 179.000922 90.843787 158.900922 98.843787 139.300922 106.943787C 117.000922 116.243787 92.200922 115.643787 68.500922 115.343787C 48.500922 115.143787 29.100922 108.743787 10.000922 102.643787C 23.600922 87.043787 34.600922 69.243787 46.600922 52.343787C 56.700922 38.143787 66.900922 23.943787 77.300922 10.043787C 87.100922 16.343787 97.900922 22.643787 109.200922 21.343787C 122.500922 19.843787 135.800922 17.943787 147.800922 10.043787M 147.8472 10L 197.2211 77.9574C 140.9724 118.8135 70.436 125.7627 10 102.6675L 77.335 10.0058C 97.7901 24.8667 126.2814 25.6547 147.8472 10Z"></path></g></g></g><g id="g-root-2.cu_sy_141rhuuabf095-stroke" data-item-order="-113620" data-item-id="2.cu_sy_141rhuuabf095" data-item-class="ScenePart Part Indexed Fill Stroke" data-item-index="2" data-renderer-id="0" transform="translate(208.59356689453125, 134.085693359375)"><g id="2.cu_sy_141rhuuabf095-stroke" fill="none" stroke-linecap="round" stroke-linejoin="round" stroke-miterlimit="4" stroke="#FFFFFF" stroke-width="4"><g><path d="M 31.812646 35.973999C 58.212646 26.773999 84.612646 17.273999 111.712646 9.973999C 117.212646 31.873999 119.812646 53.273999 121.412646 74.573999C 122.912646 96.173999 116.012646 116.973999 110.012646 137.273999C 103.612646 158.773999 92.312646 178.973999 77.312646 195.673999C 67.412646 181.573999 58.112646 166.873999 46.812646 153.773999C 33.212646 137.873999 21.012646 120.773999 10.012646 102.973999C 29.612646 87.073999 39.512646 61.473999 31.812646 35.973999M 31.784 35.9574L 111.6727 10C 133.1474 76.121 117.9595 145.3525 77.3189 195.6938L 10 103.0203C 30.4546 88.1587 40.0083 61.3053 31.784 35.9574Z"></path></g></g></g><g id="g-root-1.cu_sy_1q88jdyabf11c-stroke" data-item-order="-113618" data-item-id="1.cu_sy_1q88jdyabf11c" data-item-class="ScenePart Part Indexed Indexed_1 Fill Stroke" data-item-index="1" data-renderer-id="0" transform="translate(173.3319091796875, 34.5596923828125)"><g id="1.cu_sy_1q88jdyabf11c-stroke" fill="none" stroke-linecap="round" stroke-linejoin="round" stroke-miterlimit="4" stroke="#FFFFFF" stroke-width="4"><g><path d="M 9.974304 94C 8.774304 66 10.174304 38 9.974304 10C 35.174304 9.9 59.174304 14.9 81.374304 23.3C 99.774304 30.2 116.874304 39.9 131.874304 52C 148.974304 65.7 163.774304 81.9 175.974304 100.1C 164.174304 104.4 152.174304 108.2 139.974304 111.7C 127.374304 115.4 115.174304 120.5 102.474304 123.9C 90.474304 127.1 78.874304 131.7 67.074304 135.4C 57.374304 112.1 36.574304 96 9.974304 94M 10 93.9999L 10 10C 79.5208 10.0088 140.6706 45.8471 175.9893 100.0549L 67.049 135.4413C 59.2355 111.3954 36.6487 94.0111 10 93.9999Z"></path></g></g></g><g id="g-root-1_v30ahyab6kni-stroke" data-item-order="0" data-item-id="1_v30ahyab6kni" data-item-class="Icon Stroke SceneTarget Indexed InsideFill" data-item-index="5" data-renderer-id="0" transform="translate(89.37298583984375, 72.02490234375)"><g id="1_v30ahyab6kni-stroke" fill="none" stroke-linecap="round" stroke-linejoin="round" stroke-miterlimit="4" stroke="#FFFFFF" stroke-width="2"><g><path d="M 49 35C 48.599998 31 48.200001 26.799999 49 23C 50.400002 16.6 43.599998 10.4 37 11C 29 11.8 21 9.8 13 11C 12 11.2 10.6 12 11 13C 16.4 26 10.4 41 11 55C 11 56.200001 11.8 57 13 57C 15.6 57 18.4 57.599998 21 57M 39 11.2C 39.799999 13.6 38.799999 16.4 39 19C 39.200001 20 39.799999 21 41 21C 43.599998 21 46.200001 21 48.799999 21M 33 57C 28.6 57 24.799999 53.400002 25 49C 25.200001 44.599998 28.799999 42.200001 33 41M 57 41C 55.599998 41 54.200001 41 52.799999 41C 51 41 50 42.400002 49.200001 43.799999C 48.200001 45.400002 49.400002 47.400002 51 48C 52.400002 48.599998 54 49 55 50C 56.200001 51.200001 57.200001 52.400002 57 54.200001C 56.599998 55.799999 55 56.799999 53.200001 57C 51.799999 57.200001 50.400002 57 49 57M 45 41C 43.599998 40.799999 42 40.599998 40.799999 41C 39 41.400002 37 42.200001 37.200001 43.799999C 37.200001 45.599998 37.599998 47.200001 39 48C 40.400002 48.599998 41.599998 49.799999 43 50C 44.599998 50.200001 45.200001 52.400002 45 54.200001C 44.599998 55.799999 43 56.799999 41.200001 57C 39.799999 57.200001 38.400002 57 37 57M 49 35L 49 22.956001C 49.003315 16.353855 43.652145 10.999999 37.049999 11L 13 11C 11.895431 11 11 11.895431 11 13L 11 55C 11 56.104568 11.895431 57 13 57L 21 57M 39 11.168L 39 19C 39 20.104568 39.895432 21 41 21L 48.84 21M 33 57C 28.581722 57 25 53.418278 25 49C 25 44.581722 28.581722 41 33 41M 57 41L 52.708 41C 50.988789 41.000622 49.49548 42.182915 49.100517 43.856144C 48.705555 45.529377 49.512539 47.25465 51.050003 48.024002L 54.950001 49.973999C 56.489811 50.742203 57.298763 52.46883 56.903545 54.143627C 56.508324 55.818424 55.012798 57.00124 53.292 57L 49 57M 45 41L 40.708 41C 38.988789 41.000622 37.495476 42.182915 37.100517 43.856144C 36.705551 45.529377 37.512539 47.25465 39.050003 48.024002L 42.950001 49.973999C 44.489811 50.742203 45.298763 52.46883 44.903545 54.143627C 44.508324 55.818424 43.012798 57.00124 41.292 57L 37 57"></path></g></g></g><g id="g-root-refr_1430mcmab6mfe-stroke" data-item-order="0" data-item-id="refr_1430mcmab6mfe" data-item-class="Icon Stroke SceneTarget Indexed Indexed_1 InsideFill" data-item-index="1" data-renderer-id="0" transform="translate(209.28106689453125, 72.0550537109375)"><g id="refr_1430mcmab6mfe-stroke" fill="none" stroke-linecap="round" stroke-linejoin="round" stroke-miterlimit="4" stroke="#FFFFFF" stroke-width="2"><g><path d="M 34 52.599998C 34.200001 52.400002 34.400002 52.799999 34.599998 53C 34.599998 53.200001 34.200001 53.400002 34 53.599998C 33.799999 53.599998 33.599998 53.200001 33.599998 53C 33.400002 52.799999 33.799999 52.400002 34 52.599998M 34 52.599998M 25 11C 30.799999 10 37.200001 12 43 11C 43 11 46.400002 11 47 15C 48.799999 27.6 48.400002 40.400002 47 53C 47 53 46.799999 55.400002 43 57C 37.400002 59.200001 31 57 25 57C 25 57 20.4 57 21 53C 22.799999 40.400002 19.6 27.6 21 15C 21 15 21.200001 12 25 11M 47 49C 38.599998 51 29.6 49.400002 21 49M 47 19C 38.400002 19.799999 29.6 18.799999 21 19M 31 15C 33 14.4 35 15.4 37 15M 36 33C 38 32.599998 40 33.200001 42 33C 42.400002 31 42 29 42 27M 41.799999 33C 40.799999 29.4 37.599998 26.799999 33.799999 27C 30.200001 27.200001 28 30.200001 26.200001 33.400002C 24.200001 36.599998 27.200001 40.599998 30.6 42.200001C 34 43.799999 38.599998 43.200001 40.200001 40M 34 52.5C 34.276142 52.5 34.5 52.723858 34.5 53L 34.5 53C 34.5 53.276142 34.276142 53.5 34 53.5L 34 53.5C 33.723858 53.5 33.5 53.276142 33.5 53L 33.5 53C 33.5 52.723858 33.723858 52.5 34 52.5M 34 52.5L 34 52.5M 25 11L 43 11C 43 11 47 11 47 15L 47 53C 47 53 47 57 43 57L 25 57C 25 57 21 57 21 53L 21 15C 21 15 21 11 25 11M 47 49L 21 49M 47 19L 21 19M 31 15L 37 15M 36 33L 42 33L 42 27M 41.748001 33C 40.817451 29.408611 37.539841 26.928221 33.830723 27.008455C 30.121605 27.08869 26.954323 29.708494 26.179945 33.336761C 25.405569 36.965034 27.22731 40.649635 30.580481 42.237167C 33.933651 43.824696 37.938313 42.898548 40.253998 40"></path></g></g></g><g id="g-root-penc_8wj8yuab2fpf-stroke" data-item-order="0" data-item-id="penc_8wj8yuab2fpf" data-item-class="Icon Stroke SceneTarget InsideFill" data-item-index="0" data-renderer-id="0" transform="translate(137.30621337890625, 142.5557861328125)"><g id="penc_8wj8yuab2fpf-stroke" fill="none" stroke-linecap="round" stroke-linejoin="round" stroke-miterlimit="4" stroke="#FFFFFF" stroke-width="2"><g><path d="M 80.5 80.5C 81.399994 70.300003 80.5 60.100002 80.5 49.599998C 73.300003 52 65.199997 48.400002 58 49.599998C 56.800003 59.800003 60.399998 70.600006 58 80.5M 58 49.599998C 61.899998 44.800003 63.699997 38.5 66.699997 33.099998C 67 31.900002 68.199997 31.900002 69.100006 31.599998C 70.300003 31 71.199997 31.900002 71.800003 33.099998C 73.600006 38.800003 76.300003 44.800003 80.5 49.599998M 69.100006 49.599998C 68.199997 59.800003 67.899994 70.300003 69.100006 80.5M 47.5 68.5C 35.800003 71.5 23.5 69.699997 11.5 68.5M 31 73.899994C 31 75.399994 30.400002 74.800003 30.400002 74.5C 30.099998 74.199997 30.700001 73.600006 31 73.899994M 31 73.899994M 47.5 79.600006C 46.900002 80.5 45.699997 80.5 44.5 80.5C 35.5 81.399994 26.5 80.800003 17.5 80.5C 14.2 80.5 12.1 77.800003 11.5 74.5C 8.8 55.599998 12.4 36.400002 11.5 17.5C 11.5 14.2 14.2 11.5 17.5 11.5C 26.5 11.8 35.800003 9.7 44.5 11.5C 47.800003 12.1 50.199997 14.2 50.5 17.5C 51.400002 27.099998 53.199997 37 50.5 46M 64 41.5C 67.899994 42.099998 72.100006 40.300003 76 41.5M 80.464005 80.5L 80.464005 49.708L 57.925003 49.708L 57.925003 80.5M 58 49.599998L 66.667 32.961998C 67.209846 32.061195 68.184769 31.510441 69.236504 31.510441C 70.288231 31.510441 71.263153 32.061195 71.806 32.961998L 80.475998 49.599998M 69.225998 49.708L 69.225998 80.5M 47.535999 68.5L 11.536 68.5M 31.035999 73.75C 31.235157 73.749199 31.426388 73.827957 31.567213 73.968781C 31.70804 74.109604 31.7868 74.300842 31.785999 74.5L 31.785999 74.5C 31.7868 74.699158 31.70804 74.890388 31.567213 75.031212C 31.426388 75.172035 31.235157 75.250801 31.035999 75.25L 31.035999 75.25C 30.621788 75.25 30.285999 74.914215 30.285999 74.5L 30.285999 74.5C 30.285999 74.085785 30.621788 73.75 31.035999 73.75M 31.035999 73.75L 31.035999 73.75M 47.542 79.693001C 46.630684 80.221893 45.595673 80.500313 44.542 80.5L 17.542 80.5C 14.228292 80.5 11.542 77.813713 11.542 74.5L 11.542 17.5C 11.542 14.186292 14.228292 11.5 17.542 11.5L 44.542 11.5C 47.855709 11.5 50.542 14.186292 50.542 17.5L 50.542 46M 64.035995 41.517998L 76.035995 41.517998"></path></g></g></g><g id="g-root-html_1cvj95yab6kgf-stroke" data-item-order="0" data-item-id="html_1cvj95yab6kgf" data-item-class="Icon Stroke SceneTarget Indexed InsideFill" data-item-index="4" data-renderer-id="0" transform="translate(52.29052734375, 186.0550537109375)"><g id="html_1cvj95yab6kgf-stroke" fill="none" stroke-linecap="round" stroke-linejoin="round" stroke-miterlimit="4" stroke="#FFFFFF" stroke-width="2"><g><path d="M 49 29C 48.599998 27 48.599998 25 49 23C 50.599998 16.6 43.400002 9 37 11C 29.4 13.6 21 10.8 13 11C 11.8 11 11 11.8 11 13C 10.2 27 9.4 41 11 55C 11.2 56 12 56.799999 13 57C 24.200001 59.200001 35.799999 55 47 57C 48 57.200001 49 56 49 55C 49 54.400002 49.200001 53.599998 49 53M 39 11.2C 40 13.6 39.400002 16.4 39 19C 38.799999 20 40 21.4 41 21C 43.599998 20.200001 46.200001 21.200001 48.799999 21M 25 35C 23.6 38.799999 24.4 43 25 47M 19 47C 19.4 43 19 39 19 35M 19 41C 21 41.200001 23 41.200001 25 41M 29 35C 31.6 34.400002 34.400002 35.799999 37 35M 33 35C 31.799999 38.799999 32.400002 43 33 47M 41 47C 40.799999 43 41.799999 39 41 35C 41.799999 37.200001 42.799999 39.200001 44 41C 45.599998 39.599998 45.400002 36.599998 47 35C 45.599998 38.799999 48.200001 43.200001 47 47M 51 35C 50.599998 38.200001 51.599998 41.799999 51 45C 50.799999 46 52 47 53 47C 54.400002 47.200001 55.799999 46.799999 57 47M 49 29L 49 22.956001C 49.003315 16.353855 43.652145 10.999999 37.049999 11L 13 11C 11.895431 11 11 11.895431 11 13L 11 55C 11 56.104568 11.895431 57 13 57L 47 57C 48.104568 57 49 56.104568 49 55L 49 53M 39 11.168L 39 19C 39 20.104568 39.895432 21 41 21L 48.84 21M 25 35.007999L 25 47.007999M 19 47.007999L 19 35.007999M 19 41.007999L 25 41.007999M 29 35.007999L 37 35.007999M 33 35.007999L 33 47.007999M 41 47.007999L 41 35.007999L 44 41.007999L 47 35.007999L 47 47.007999M 51 35L 51 45C 51 46.104568 51.895432 47 53 47L 57 47"></path></g></g></g><g id="g-root-2_18gyp7qab6nep-stroke" data-item-order="0" data-item-id="2_18gyp7qab6nep" data-item-class="Icon Stroke SceneTarget Indexed InsideFill" data-item-index="2" data-renderer-id="0" transform="translate(246.30609130859375, 186.103759765625)"><g id="2_18gyp7qab6nep-stroke" fill="none" stroke-linecap="round" stroke-linejoin="round" stroke-miterlimit="4" stroke="#FFFFFF" stroke-width="2"><g><path d="M 13.428572 16.857143C 26.457144 13.085714 41.200001 20.285715 54.57143 16.857143C 54.57143 16.857143 56.285713 16.857143 56.285713 18.571428C 56.628574 27.828571 58.342857 37.085716 56.285713 46C 56.285713 46 56.285713 47.714287 54.57143 47.714287C 40.857143 47.371429 27.142857 48.057144 13.428572 47.714287C 13.428572 47.714287 11.714286 47.714287 11.714286 46C 12.057143 36.742859 13.428572 27.485714 11.714286 18.571428C 11.714286 18.571428 11.714286 17.199999 13.428572 16.857143M 30.571428 47.714287C 28.857143 50.114285 29.200001 53.885715 27.142857 56.285713M 37.428574 47.714287C 38.457146 50.457146 39.485718 53.542858 40.857143 56.285713M 23.714287 56.285713C 30.571428 55.942856 37.428574 55.600002 44.285713 56.285713M 25.428572 28.171429C 23.028572 29.200001 21.314285 31.257143 19.6 33.314285C 20.971428 35.028572 22.685715 36.057144 24.742859 37.428574M 43.600002 28.857143C 44.971428 30.571428 47.028572 31.6 48.742859 33.314285C 46.342857 34.342857 44.628574 36.742859 42.57143 38.457146M 31.6 40.171429C 32.628571 34.685715 33.314285 28.857143 36.742859 24.742859"></path><path d="M 13.428572 16.857143L 54.57143 16.857143C 54.57143 16.857143 56.285713 16.857143 56.285713 18.571428L 56.285713 46C 56.285713 46 56.285713 47.714287 54.57143 47.714287L 13.428572 47.714287C 13.428572 47.714287 11.714286 47.714287 11.714286 46L 11.714286 18.571428C 11.714286 18.571428 11.714286 16.857143 13.428572 16.857143M 30.571428 47.714287L 27.142857 56.285713M 37.428574 47.714287L 40.857143 56.285713M 23.714287 56.285713L 44.285713 56.285713M 25.428572 28L 19.428572 33.142857L 24.571428 37.428574M 43.428574 28.857143L 48.57143 33.142857L 42.57143 38.285713M 31.428572 40L 36.57143 24.571428"></path></g></g></g><g id="g-root-3_ddlp9iab6m0w-stroke" data-item-order="0" data-item-id="3_ddlp9iab6m0w" data-item-class="Icon Stroke SceneTarget Indexed InsideFill" data-item-index="3" data-renderer-id="0" transform="translate(149.280517578125, 256.5596923828125)"><g id="3_ddlp9iab6m0w-stroke" fill="none" stroke-linecap="round" stroke-linejoin="round" stroke-miterlimit="4" stroke="#FFFFFF" stroke-width="2"><g><path d="M 13 11C 26.4 11.6 39.799999 8.4 53 11C 53 11 55.400002 11 55 13C 52.599998 26.200001 58.200001 40 55 53C 55 53 55 55.599998 53 55C 40.400002 50.799999 26.200001 56.200001 13 55C 13 55 11.2 55 11 53C 10 39.599998 11.6 26.4 11 13C 11 13 11.2 10.2 13 11M 25 23C 27.4 33.400002 26.6 44.400002 25 55M 41 23C 39.200001 33.599998 41.799999 44.400002 41 55M 11 23C 25.200001 19.200001 40.400002 22 55 23M 13 10.994L 53 10.994C 53 10.994 55 10.994 55 12.993999L 55 52.993999C 55 52.993999 55 54.993999 53 54.993999L 13 54.993999C 13 54.993999 11 54.993999 11 52.993999L 11 12.993999C 11 12.993999 11 10.994 13 10.994M 25 22.993999L 25 54.993999M 41 23.026001L 41 54.993999M 11 22.993999L 55 22.993999"></path></g></g></g></g></g></svg>