<?xml version="1.0" encoding="utf-8" standalone="yes"?>
<!DOCTYPE svg PUBLIC "-//W3C//DTD SVG 1.1//EN" "http://www.w3.org/Graphics/SVG/1.1/DTD/svg11.dtd">
<svg width="708" height="348" viewBox="0 0 708 348" style="fill:none;stroke:none;fill-rule:evenodd;clip-rule:evenodd;stroke-linecap:round;stroke-linejoin:round;stroke-miterlimit:1.5;" version="1.1" xmlns="http://www.w3.org/2000/svg" xmlns:xlink="http://www.w3.org/1999/xlink"><style id="fontImports">@import url("https://fonts.googleapis.com/css2?family=Shantell+Sans:wght@300..800&amp;display=block");</style><g id="items" style="isolation: isolate"><g id="blend" style="mix-blend-mode:screen"><g id="g-root-4.Vector_sy_8wit8tmiexou-fill" data-item-order="-93322" data-item-id="4.Vector_sy_8wit8tmiexou" data-item-class="ScenePart Part Indexed Fill Stroke ColorStrokeGray" data-item-index="4" data-renderer-id="0" transform="translate(163.7030029296875, 69.06298828125)"><g id="4.Vector_sy_8wit8tmiexou-fill" stroke="none" fill="#585b5e"><g><path d="M 110.974997 70.788996L 116.622997 88.936996L 98.081997 93.118996L 101.669997 86.903996L 79.046997 73.842996C 68.091997 87.338996 48.651997 91.262996 33.118997 82.294996C 15.899997 72.353996 9.999997 50.336996 19.941997 33.117996C 29.882997 15.899996 51.899997 9.999996 69.118997 19.940996C 84.630997 28.896996 90.955997 47.654996 84.787997 63.874996L 107.421997 76.941996L 110.974997 70.788996Z"></path></g></g></g><g id="g-root-3.Vector_sy_m7zbm5miew3x-fill" data-item-order="-93320" data-item-id="3.Vector_sy_m7zbm5miew3x" data-item-class="ScenePart Part Indexed Fill Stroke ColorStrokeGray" data-item-index="3" data-renderer-id="0" transform="translate(163.3900146484375, 235.967041015625)"><g id="3.Vector_sy_m7zbm5miew3x-fill" stroke="none" fill="#585b5e"><g><path d="M 111.028001 32.33099L 116.676001 14.18299L 98.136001 9.99999L 101.724001 16.21499L 79.046001 29.30799C 68.091001 15.81199 48.652001 11.88799 33.118001 20.85599C 15.899001 30.79699 10.000001 52.81399 19.941001 70.03299C 29.882001 87.25199 51.899001 93.15099 69.118001 83.20999C 84.630001 74.25399 90.955001 55.49599 84.788001 39.27699L 107.476001 26.17799L 111.028001 32.33099Z"></path></g></g></g><g id="g-root-2.Vector_sy_18egd59mieww4-fill" data-item-order="-93318" data-item-id="2.Vector_sy_18egd59mieww4" data-item-class="ScenePart Part Indexed Fill Stroke ColorStrokeGray" data-item-index="2" data-renderer-id="0" transform="translate(429.9339599609375, 235.967041015625)"><g id="2.Vector_sy_18egd59mieww4-fill" stroke="none" fill="#585b5e"><g><path d="M 28.54001 9.99999L 10.00001 14.18299L 15.64801 32.33099L 19.23601 26.11599L 41.91401 39.20899C 35.70301 55.44399 42.02401 74.24099 57.55801 83.20999C 74.77701 93.15099 96.79401 87.25199 106.73501 70.03299C 116.67601 52.81399 110.77701 30.79699 93.55801 20.85599C 78.04601 11.89999 58.63901 15.80099 47.67601 29.25199L 24.98801 16.15299L 28.54001 9.99999Z"></path></g></g></g><g id="g-root-1.Vector_sy_1lpwvilmievb7-fill" data-item-order="-93316" data-item-id="1.Vector_sy_1lpwvilmievb7" data-item-class="ScenePart Part Indexed Indexed_1 Fill Stroke ColorStrokeGray" data-item-index="1" data-renderer-id="0" transform="translate(429.67401123046875, 69.06298828125)"><g id="1.Vector_sy_1lpwvilmievb7-fill" stroke="none" fill="#585b5e"><g><path d="M 28.540989 93.119996L 9.999989 88.936996L 15.647989 70.788996L 19.236989 77.003996L 41.859989 63.941996C 35.648989 47.706996 41.970989 28.909996 57.503989 19.940996C 74.722989 9.999996 96.739989 15.899996 106.680989 33.117996C 116.622989 50.336996 110.722989 72.353996 93.503989 82.294996C 77.991989 91.250996 58.584989 87.349996 47.621989 73.898996L 24.987989 86.965996L 28.540989 93.119996Z"></path></g></g></g><g id="g-root-0.cr-big_cr_9mg7hmidiiq-fill" data-item-order="-93314" data-item-id="0.cr-big_cr_9mg7hmidiiq" data-item-class="Shape Stroke Fill ScenePart Part Indexed_0 ColorStrokeGray" data-item-index="0" data-renderer-id="0" transform="translate(278, 121.99600219726562)"><g id="0.cr-big_cr_9mg7hmidiiq-fill" stroke="none" fill="#585b5e"><g><path d="M 10 82C 10.000001 121.764503 42.235499 154.000001 82.000001 154.000001C 121.764503 154.000001 154.000001 121.764503 154.000001 82.000001C 154.000001 42.235499 121.764503 10.000001 82.000001 10.000001C 42.235499 10.000001 10.000001 42.235499 10.000001 82.000001"></path></g></g></g><g id="g-root-tx_pathtobe_143mnppmiex37-fill" data-item-order="0" data-item-id="tx_pathtobe_143mnppmiex37" data-item-class="Label Stroke SceneTarget SceneTitle Title" data-item-index="none" data-renderer-id="0" transform="translate(80, 2)"><g id="tx_pathtobe_143mnppmiex37-fill" stroke="none" fill="#D6D9DC"><g><text style="font: bold 25px &quot;Shantell Sans&quot;, cursive; white-space: pre;"><tspan x="13.7" y="45" dominant-baseline="ideographic">My Experience as a Front-End Developer</tspan></text></g></g></g><g id="g-root-tx_careerev_1q6zbt9miewp3-fill" data-item-order="0" data-item-id="tx_careerev_1q6zbt9miewp3" data-item-class="Label Stroke SceneTarget Indexed" data-item-index="4" data-renderer-id="0" transform="translate(2, 62)"><g id="tx_careerev_1q6zbt9miewp3-fill" stroke="none" fill="#D6D9DC"><g><text style="font: 20px &quot;Shantell Sans&quot;, cursive; white-space: pre;"><tspan x="99.98" y="35" dominant-baseline="ideographic">Career </tspan><tspan x="23.38" y="59" dominant-baseline="ideographic">Evolution from </tspan><tspan x="27.56" y="83" dominant-baseline="ideographic">Fascination to </tspan><tspan x="62.09" y="107" dominant-baseline="ideographic">Dedication</tspan></text></g></g></g><g id="g-root-tx_strongfo_909nrhmievpe-fill" data-item-order="0" data-item-id="tx_strongfo_909nrhmievpe" data-item-class="Label Stroke SceneTarget Indexed Indexed_1" data-item-index="1" data-renderer-id="0" transform="translate(542, 62)"><g id="tx_strongfo_909nrhmievpe-fill" stroke="none" fill="#D6D9DC"><g><text style="font: 20px &quot;Shantell Sans&quot;, cursive; white-space: pre;"><tspan x="12" y="35" dominant-baseline="ideographic">Strong </tspan><tspan x="12" y="59" dominant-baseline="ideographic">Foundation in </tspan><tspan x="12" y="83" dominant-baseline="ideographic">Web </tspan><tspan x="12" y="107" dominant-baseline="ideographic">Development</tspan></text></g></g></g><g id="g-root-grow_dl2yktmilyiw-fill" data-item-order="0" data-item-id="grow_dl2yktmilyiw" data-item-class="Icon Stroke SceneTarget Indexed InsideFill InsideColorFill" data-item-index="4" data-renderer-id="0" transform="translate(180, 86)"></g><g id="g-root-wall_1q8ur2lmindab-fill" data-item-order="0" data-item-id="wall_1q8ur2lmindab" data-item-class="Icon Stroke SceneTarget Indexed Indexed_1 InsideFill InsideColorFill" data-item-index="1" data-renderer-id="0" transform="translate(472, 86)"></g><g id="g-root-user_142dpjhmilz47-fill" data-item-order="0" data-item-id="user_142dpjhmilz47" data-item-class="Icon Stroke SceneTarget SceneEnd InsideFill InsideColorFill" data-item-index="none" data-renderer-id="0" transform="translate(314, 157.99600219726562)"></g><g id="g-root-tx_passionf_8ye8i5miewp4-fill" data-item-order="0" data-item-id="tx_passionf_8ye8i5miewp4" data-item-class="Label Stroke SceneTarget Indexed" data-item-index="3" data-renderer-id="0" transform="translate(38, 230)"><g id="tx_passionf_8ye8i5miewp4-fill" stroke="none" fill="#D6D9DC"><g><text style="font: 20px &quot;Shantell Sans&quot;, cursive; white-space: pre;"><tspan x="21.69" y="35" dominant-baseline="ideographic">Passion for </tspan><tspan x="46.8" y="59" dominant-baseline="ideographic">Creating </tspan><tspan x="46.25" y="83" dominant-baseline="ideographic">Dynamic </tspan><tspan x="28.16" y="107" dominant-baseline="ideographic">Interfaces</tspan></text></g></g></g><g id="g-root-phon_v3mbv1mincw9-fill" data-item-order="0" data-item-id="phon_v3mbv1mincw9" data-item-class="Icon Stroke SceneTarget Indexed InsideFill InsideColorFill" data-item-index="3" data-renderer-id="0" transform="translate(180, 254)"></g><g id="g-root-nati_1cw5aj1mincp6-fill" data-item-order="0" data-item-id="nati_1cw5aj1mincp6" data-item-class="Icon Stroke SceneTarget Indexed InsideFill InsideColorFill" data-item-index="2" data-renderer-id="0" transform="translate(472, 254)"></g><g id="g-root-tx_speciali_1cxe8p9miexa9-fill" data-item-order="0" data-item-id="tx_speciali_1cxe8p9miexa9" data-item-class="Label Stroke SceneTarget Indexed" data-item-index="2" data-renderer-id="0" transform="translate(542, 254)"><g id="tx_speciali_1cxe8p9miexa9-fill" stroke="none" fill="#D6D9DC"><g><text style="font: 20px &quot;Shantell Sans&quot;, cursive; white-space: pre;"><tspan x="12" y="35" dominant-baseline="ideographic">Specialization </tspan><tspan x="12" y="59" dominant-baseline="ideographic">in React.js</tspan></text></g></g></g><g id="g-root-4.Vector_sy_8wit8tmiexou-stroke" data-item-order="-93322" data-item-id="4.Vector_sy_8wit8tmiexou" data-item-class="ScenePart Part Indexed Fill Stroke ColorStrokeGray" data-item-index="4" data-renderer-id="0" transform="translate(163.7030029296875, 69.06298828125)"><g id="4.Vector_sy_8wit8tmiexou-stroke" fill="none" stroke-linecap="round" stroke-linejoin="round" stroke-miterlimit="4" stroke="#A3A3A3" stroke-width="4"><g><path d="M 110.996997 70.836996C 113.996997 76.336996 114.996997 82.836996 116.596997 88.936996C 110.696997 91.136996 104.196997 91.636996 98.096997 93.136996C 98.596997 90.836996 100.296997 88.836996 101.696997 86.936996C 94.196997 82.336996 86.196997 78.836996 79.096997 73.836996C 67.196997 86.536996 49.396997 89.936996 33.096997 82.336996C 15.096997 73.836996 8.896997 49.636996 19.896997 33.136996C 30.996997 16.536996 52.996997 8.336996 69.096997 19.936996C 83.696997 30.336996 89.696997 47.236996 84.796997 63.836996C 92.496997 67.936996 99.296997 73.936996 107.396997 76.936996C 108.296997 74.736996 110.396997 73.036996 110.996997 70.836996"></path><path d="M 110.974997 70.788996L 116.622997 88.936996L 98.081997 93.118996L 101.669997 86.903996L 79.046997 73.842996C 68.091997 87.338996 48.651997 91.262996 33.118997 82.294996C 15.899997 72.353996 9.999997 50.336996 19.941997 33.117996C 29.882997 15.899996 51.899997 9.999996 69.118997 19.940996C 84.630997 28.896996 90.955997 47.654996 84.787997 63.874996L 107.421997 76.941996L 110.974997 70.788996Z"></path></g></g></g><g id="g-root-3.Vector_sy_m7zbm5miew3x-stroke" data-item-order="-93320" data-item-id="3.Vector_sy_m7zbm5miew3x" data-item-class="ScenePart Part Indexed Fill Stroke ColorStrokeGray" data-item-index="3" data-renderer-id="0" transform="translate(163.3900146484375, 235.967041015625)"><g id="3.Vector_sy_m7zbm5miew3x-stroke" fill="none" stroke-linecap="round" stroke-linejoin="round" stroke-miterlimit="4" stroke="#A3A3A3" stroke-width="4"><g><path d="M 111.010001 32.33299C 113.410001 26.43299 115.310001 20.33299 116.710001 14.23299C 110.710001 12.13299 104.510001 10.33299 98.110001 10.03299C 98.810001 12.33299 101.010001 13.93299 101.710001 16.23299C 94.410001 20.93299 86.510001 24.73299 79.010001 29.33299C 68.810001 15.23299 48.710001 11.93299 33.110001 20.83299C 15.910001 30.73299 9.810001 52.93299 19.910001 70.03299C 30.110001 87.13299 52.110001 93.53299 69.110001 83.23299C 84.410001 73.93299 90.410001 55.73299 84.810001 39.23299C 92.610001 35.33299 100.410001 31.33299 107.510001 26.13299C 108.310001 28.43299 110.110001 30.13299 111.010001 32.33299"></path><path d="M 111.028001 32.33099L 116.676001 14.18299L 98.136001 9.99999L 101.724001 16.21499L 79.046001 29.30799C 68.091001 15.81199 48.652001 11.88799 33.118001 20.85599C 15.899001 30.79699 10.000001 52.81399 19.941001 70.03299C 29.882001 87.25199 51.899001 93.15099 69.118001 83.20999C 84.630001 74.25399 90.955001 55.49599 84.788001 39.27699L 107.476001 26.17799L 111.028001 32.33099Z"></path></g></g></g><g id="g-root-2.Vector_sy_18egd59mieww4-stroke" data-item-order="-93318" data-item-id="2.Vector_sy_18egd59mieww4" data-item-class="ScenePart Part Indexed Fill Stroke ColorStrokeGray" data-item-index="2" data-renderer-id="0" transform="translate(429.9339599609375, 235.967041015625)"><g id="2.Vector_sy_18egd59mieww4-stroke" fill="none" stroke-linecap="round" stroke-linejoin="round" stroke-miterlimit="4" stroke="#A3A3A3" stroke-width="4"><g><path d="M 28.56601 10.03299C 22.56601 12.23299 16.16601 12.93299 9.96601 14.23299C 12.76601 19.83299 14.76601 26.03299 15.66601 32.33299C 17.46601 30.83299 18.86601 28.53299 19.26601 26.13299C 27.46601 28.93299 34.66601 34.43299 41.86601 39.23299C 35.16601 55.23299 42.76601 73.03299 57.56601 83.23299C 73.96601 94.43299 95.86601 86.73299 106.76601 70.03299C 117.56601 53.33299 110.86601 30.73299 93.56601 20.83299C 77.96601 12.03299 58.86601 15.93299 47.66601 29.23299C 40.16601 24.83299 32.26601 20.93299 24.96601 16.13299C 26.56601 14.43299 27.46601 12.03299 28.56601 10.03299"></path><path d="M 28.54001 9.99999L 10.00001 14.18299L 15.64801 32.33099L 19.23601 26.11599L 41.91401 39.20899C 35.70301 55.44399 42.02401 74.24099 57.55801 83.20999C 74.77701 93.15099 96.79401 87.25199 106.73501 70.03299C 116.67601 52.81399 110.77701 30.79699 93.55801 20.85599C 78.04601 11.89999 58.63901 15.80099 47.67601 29.25199L 24.98801 16.15299L 28.54001 9.99999Z"></path></g></g></g><g id="g-root-1.Vector_sy_1lpwvilmievb7-stroke" data-item-order="-93316" data-item-id="1.Vector_sy_1lpwvilmievb7" data-item-class="ScenePart Part Indexed Indexed_1 Fill Stroke ColorStrokeGray" data-item-index="1" data-renderer-id="0" transform="translate(429.67401123046875, 69.06298828125)"><g id="1.Vector_sy_1lpwvilmievb7-stroke" fill="none" stroke-linecap="round" stroke-linejoin="round" stroke-miterlimit="4" stroke="#A3A3A3" stroke-width="4"><g><path d="M 28.525989 93.136996C 22.325989 91.936996 16.325989 88.936996 10.025989 88.936996C 13.625989 83.736996 13.525989 76.736996 15.625989 70.836996C 17.425989 72.436996 18.325989 74.836996 19.225989 77.036996C 27.525989 74.436996 34.625989 68.836996 41.825989 63.936996C 34.225989 48.336996 41.825989 28.636996 57.525989 19.936996C 74.925989 10.336996 95.925989 16.436996 106.725989 33.136996C 117.425989 49.836996 111.525989 73.936996 93.525989 82.336996C 77.225989 89.836996 57.125989 88.436996 47.625989 73.936996C 39.425989 76.936996 32.025989 81.836996 25.025989 86.936996C 26.125989 89.036996 28.125989 90.836996 28.525989 93.136996"></path><path d="M 28.540989 93.119996L 9.999989 88.936996L 15.647989 70.788996L 19.236989 77.003996L 41.859989 63.941996C 35.648989 47.706996 41.970989 28.909996 57.503989 19.940996C 74.722989 9.999996 96.739989 15.899996 106.680989 33.117996C 116.622989 50.336996 110.722989 72.353996 93.503989 82.294996C 77.991989 91.250996 58.584989 87.349996 47.621989 73.898996L 24.987989 86.965996L 28.540989 93.119996Z"></path></g></g></g><g id="g-root-0.cr-big_cr_9mg7hmidiiq-stroke" data-item-order="-93314" data-item-id="0.cr-big_cr_9mg7hmidiiq" data-item-class="Shape Stroke Fill ScenePart Part Indexed_0 ColorStrokeGray" data-item-index="0" data-renderer-id="0" transform="translate(278, 121.99600219726562)"><g id="0.cr-big_cr_9mg7hmidiiq-stroke" fill="none" stroke-linecap="round" stroke-linejoin="round" stroke-miterlimit="4" stroke="#A3A3A3" stroke-width="4"><g><path d="M 10 82C 10.8 102.6 19.2 120.7 32.5 134.3C 45 147 62.9 152.1 82 154C 101 155.8 119 147.1 131.3 134.4C 144.7 120.7 153.8 102.7 154 82C 154.2 60.3 145 40 129.2 27.6C 116 17.3 100 10.2 82 10C 62.9 9.8 46.8 18.9 32.6 29.6C 17.4 41.1 10.4 61.3 10 82"></path><path d="M 10 82C 10.000001 121.764503 42.235499 154.000001 82.000001 154.000001C 121.764503 154.000001 154.000001 121.764503 154.000001 82.000001C 154.000001 42.235499 121.764503 10.000001 82.000001 10.000001C 42.235499 10.000001 10.000001 42.235499 10.000001 82.000001"></path></g></g></g><g id="g-root-tx_pathtobe_143mnppmiex37-stroke" data-item-order="0" data-item-id="tx_pathtobe_143mnppmiex37" data-item-class="Label Stroke SceneTarget SceneTitle Title" data-item-index="none" data-renderer-id="0" transform="translate(80, 2)"></g><g id="g-root-tx_careerev_1q6zbt9miewp3-stroke" data-item-order="0" data-item-id="tx_careerev_1q6zbt9miewp3" data-item-class="Label Stroke SceneTarget Indexed" data-item-index="4" data-renderer-id="0" transform="translate(2, 62)"></g><g id="g-root-tx_strongfo_909nrhmievpe-stroke" data-item-order="0" data-item-id="tx_strongfo_909nrhmievpe" data-item-class="Label Stroke SceneTarget Indexed Indexed_1" data-item-index="1" data-renderer-id="0" transform="translate(542, 62)"></g><g id="g-root-grow_dl2yktmilyiw-stroke" data-item-order="0" data-item-id="grow_dl2yktmilyiw" data-item-class="Icon Stroke SceneTarget Indexed InsideFill InsideColorFill" data-item-index="4" data-renderer-id="0" transform="translate(180, 86)"><g id="grow_dl2yktmilyiw-stroke" fill="none" stroke-linecap="round" stroke-linejoin="round" stroke-miterlimit="4" stroke="#232729" stroke-width="2"><g><path d="M 37 25C 38 28.200001 39.799999 32.200001 43 31C 46.200001 29.799999 49.200001 28.200001 49 25C 48.799999 21.6 46.400002 19 43 19C 39.599998 19 37.400002 21.6 37 25M 43 15C 43 13.6 43.400002 12.2 43 11M 50 18C 50.599998 16.799999 52.200001 16.200001 53 15.2M 53 25C 54.400002 25.200001 55.599998 25 57 25M 50 32C 51 33.200001 52 34 53 35M 43 35C 42.799999 36.200001 43 37.599998 43 39M 36 32C 35 33 34.200001 34.200001 33.200001 35M 33 25C 31.799999 24.6 30.200001 24.6 29 25M 36 18C 35 17 33.799999 16.200001 33.200001 15.2M 11 57C 26.200001 57.799999 42 53.400002 57 57M 13 51C 14.4 52.799999 16 54.799999 16 57M 19 51C 17 52.200001 16 54.799999 16 57M 25 51C 27 52 27.6 54.799999 28 57M 31 51C 29.200001 52.599998 27.799999 54.799999 28 57M 37 51C 39 52 39.799999 54.799999 40 57M 43 51C 41.599998 52.799999 40.200001 54.799999 40 57M 49 51C 50.400002 52.799999 51.799999 54.799999 52 57M 55 51C 53 52 52.200001 54.799999 52 57"></path><path d="M 37 25C 37 28.313709 39.686295 31 43 31C 46.313709 31 49 28.313709 49 25C 49 21.686291 46.313709 19 43 19C 39.686295 19 37 21.686291 37 25ZM 43 15L 43 11M 50.071999 17.927999L 52.900002 15.1M 53 25L 57 25M 50.071999 32.071999L 52.900002 34.900002M 43 35L 43 39M 35.928001 32.071999L 33.099998 34.900002M 33 25L 29 25M 35.928001 17.927999L 33.099998 15.1M 11 57L 57 57M 13 51C 14.630739 52.617027 15.684824 54.725197 16 57M 19 51C 17.369261 52.617027 16.315176 54.725197 16 57M 25 51C 26.630741 52.617027 27.684826 54.725197 28 57M 31 51C 29.369261 52.617027 28.315176 54.725197 28 57M 37 51C 38.630741 52.617027 39.684826 54.725197 40 57M 43 51C 41.369263 52.617027 40.315178 54.725197 40 57M 49 51C 50.630741 52.617027 51.684826 54.725197 52 57M 55 51C 53.369263 52.617027 52.315178 54.725197 52 57"></path></g></g></g><g id="g-root-wall_1q8ur2lmindab-stroke" data-item-order="0" data-item-id="wall_1q8ur2lmindab" data-item-class="Icon Stroke SceneTarget Indexed Indexed_1 InsideFill InsideColorFill" data-item-index="1" data-renderer-id="0" transform="translate(472, 86)"><g id="wall_1q8ur2lmindab-stroke" fill="none" stroke-linecap="round" stroke-linejoin="round" stroke-miterlimit="4" stroke="#232729" stroke-width="2"><g><path d="M 24 23C 30.6 23 37.400002 22.200001 44 23C 44 23 45.599998 23 46 25C 46.799999 29.6 45 34.400002 46 39C 46 39 46 41.599998 44 41C 37.599998 39.400002 30.200001 38.599998 24 41C 24 41 22 41 22 39C 22 34.400002 22.4 29.6 22 25C 22 25 22 22.6 24 23M 22 35C 29.799999 36.799999 38 35.200001 46 35M 22 29C 29.799999 27.4 38 28 46 29M 34 36C 33.799999 37.599998 34.400002 39.400002 34 41M 30 29C 29.200001 30.799999 29.799999 33 30 35M 34 23C 34.200001 25 33.599998 27 34 29M 38 29C 38.400002 31 38.200001 33 38 35M 13 17.6C 13.6 22.6 13.2 27.799999 13 32.799999C 10.6 43 19.4 53 29.4 55.799999C 30.200001 56 31 56.200001 31.6 56.599998C 33.200001 57.200001 35 57.599998 36.400002 56.599998C 37 56.200001 37.799999 56.200001 38.599998 55.799999C 47 49.799999 57 43 55 32.799999C 56.200001 27.799999 56 22.6 55 17.6C 54.799999 16.4 54.200001 15.2 53.200001 14.8C 47.200001 12.2 40.599998 10.6 34 11C 27.6 12.6 20.200001 11 14.8 14.8C 13.8 15.4 13.2 16.4 13 17.6"></path><path d="M 24 23L 44 23C 44 23 46 23 46 25L 46 39C 46 39 46 41 44 41L 24 41C 24 41 22 41 22 39L 22 25C 22 25 22 23 24 23M 22 35L 46 35M 22 29L 46 29M 34 36L 34 41M 30 29L 30 35M 34 23L 34 29M 38 29L 38 35M 13 17.540001L 13 32.82C 13.118423 43.160465 19.686085 52.324833 29.440001 55.760002L 31.68 56.580002C 33.176018 57.139786 34.823982 57.139786 36.32 56.580002L 38.559998 55.759998C 48.313915 52.324833 54.88158 43.160465 55 32.82L 55 17.540001C 54.994053 16.319199 54.263035 15.218737 53.139999 14.74C 47.079685 12.208112 40.567623 10.935639 34 11C 27.432373 10.935639 20.920311 12.208112 14.86 14.74C 13.736967 15.218737 13.005946 16.319199 13 17.540001Z"></path></g></g></g><g id="g-root-user_142dpjhmilz47-stroke" data-item-order="0" data-item-id="user_142dpjhmilz47" data-item-class="Icon Stroke SceneTarget SceneEnd InsideFill InsideColorFill" data-item-index="none" data-renderer-id="0" transform="translate(314, 157.99600219726562)"><g id="user_142dpjhmilz47-stroke" fill="none" stroke-linecap="round" stroke-linejoin="round" stroke-miterlimit="4" stroke="#232729" stroke-width="2"><g><path d="M 73.899994 71.5C 55.300003 73 36.699997 71.800003 18.1 71.5C 15.1 71.5 13 69.399994 12.1 66.399994C 11.8 65.199997 11.8 63.699997 11.5 62.5C 34.599998 63.399998 57.699997 66.699997 80.5 62.5C 80.199997 63.699997 80.199997 65.199997 79.899994 66.399994C 79 69.399994 76.899994 71.800003 73.899994 71.5M 17.5 20.5C 36.400002 20.200001 55.900002 16.9 74.5 20.5C 76 20.799999 77.5 22 77.5 23.5C 78.399994 36.400002 79.300003 49.599998 77.5 62.5C 56.800003 66.699997 35.5 62.5 14.5 62.5C 11.8 49.900002 12.4 36.400002 14.5 23.5C 14.8 22 16 20.799999 17.5 20.5M 39.400002 33.400002C 38.199997 36.699997 42.400002 40.300003 46 40C 49.599998 39.699997 51.699997 36.699997 52.900002 33.400002C 53.800003 29.799999 49.599998 25.299999 46 26.5C 42.400002 27.700001 40.300003 29.799999 39.400002 33.400002M 59.5 53.5C 58 47.199997 52.300003 43.300003 46 43C 39.699997 42.699997 35.199997 47.800003 32.5 53.5C 41.199997 56.199997 50.5 54.400002 59.5 53.5"></path><path d="M 73.917999 71.5L 18.082001 71.5C 15.152758 71.501343 12.650719 69.387352 12.163 66.499001L 11.5 62.5L 80.5 62.5L 79.836998 66.487C 79.354507 69.380127 76.851082 71.500359 73.917999 71.5ZM 17.5 20.5L 74.5 20.5C 76.156853 20.5 77.5 21.843145 77.5 23.5L 77.5 62.5L 77.5 62.5L 14.5 62.5L 14.5 62.5L 14.5 23.5C 14.5 21.843145 15.843145 20.5 17.5 20.5ZM 39.25 33.262001C 39.25 36.989922 42.272079 40.012001 46 40.012001C 49.727921 40.012001 52.75 36.989922 52.75 33.262001C 52.75 29.534077 49.727921 26.512001 46 26.512001C 42.272079 26.512001 39.25 29.534077 39.25 33.262001ZM 59.5 53.5C 57.926388 47.328926 52.368553 43.010475 46 43.010475C 39.631451 43.010475 34.073612 47.328926 32.5 53.5Z"></path></g></g></g><g id="g-root-tx_passionf_8ye8i5miewp4-stroke" data-item-order="0" data-item-id="tx_passionf_8ye8i5miewp4" data-item-class="Label Stroke SceneTarget Indexed" data-item-index="3" data-renderer-id="0" transform="translate(38, 230)"></g><g id="g-root-phon_v3mbv1mincw9-stroke" data-item-order="0" data-item-id="phon_v3mbv1mincw9" data-item-class="Icon Stroke SceneTarget Indexed InsideFill InsideColorFill" data-item-index="3" data-renderer-id="0" transform="translate(180, 254)"><g id="phon_v3mbv1mincw9-stroke" fill="none" stroke-linecap="round" stroke-linejoin="round" stroke-miterlimit="4" stroke="#232729" stroke-width="2"><g><path d="M 44 35C 46.599998 34.599998 49.400002 34.599998 52 35M 30 49C 30.799999 50.799999 30.4 53 30 55C 29.799999 56 29 57.200001 28 57C 24.799999 56 21.4 57.200001 18 57C 16.799999 57 16 56 16 55C 16.200001 49.599998 17.200001 44.200001 16 39C 15.8 38 17 37.200001 18 37C 19 36.799999 20 36.799999 21 37M 16 53C 20.6 52.799999 25.4 53 30 53M 26 33C 25 26.799999 27 20.200001 26 14C 25.799999 12.4 27.4 11.2 29 11C 35.599998 10.6 42.400002 10.6 49 11C 50.599998 11 52.400002 12.4 52 14C 50 21.799999 53.599998 30.200001 52 38C 51.599998 39.599998 50.599998 41.400002 49 41C 44.799999 40.200001 40.400002 40.599998 36 41M 38 31C 33.400002 35.599998 29.4 41 24 45M 32 31C 34 30.799999 36 31.200001 38 31C 38 33 37.400002 35.200001 38 37M 24 39C 23.799999 41 24 43 24 45C 26 45 28 44.400002 30 45"></path><path d="M 44 35L 52 35M 30 49L 30 55C 30 56.104568 29.10457 57 28 57L 18 57C 16.895432 57 16 56.104568 16 55L 16 39C 16 37.895432 16.895432 37 18 37L 21 37M 16 53L 30 53M 26 33L 26 14C 26 12.343145 27.343145 11 29 11L 49 11C 50.656857 11 52 12.343145 52 14L 52 38C 52 39.656853 50.656857 41 49 41L 36 41M 38 31L 24 45M 32 31L 38 31L 38 37M 24 39L 24 45L 30 45"></path></g></g></g><g id="g-root-nati_1cw5aj1mincp6-stroke" data-item-order="0" data-item-id="nati_1cw5aj1mincp6" data-item-class="Icon Stroke SceneTarget Indexed InsideFill InsideColorFill" data-item-index="2" data-renderer-id="0" transform="translate(472, 254)"><g id="nati_1cw5aj1mincp6-stroke" fill="none" stroke-linecap="round" stroke-linejoin="round" stroke-miterlimit="4" stroke="#232729" stroke-width="2"><g><path d="M 11 34C 11.8 38.799999 21.6 45.400002 34 43C 46.400002 40.599998 58 38.799999 57 34C 56 29.200001 46.599998 23.200001 34 25C 21.4 26.799999 12.6 29.200001 11 34M 22.6 54C 26.200001 57.200001 35.599998 49.599998 41.799999 38.400002C 48 27.4 49.200001 17.4 45.599998 14C 41.799999 10.8 32.599998 18.6 26.200001 29.4C 19.799999 40.400002 18.200001 51.400002 22.6 54M 26.200001 38.599998C 33.200001 49.200001 40.599998 54.599998 45.599998 54C 50.400002 53.200001 45.400002 41.599998 41.799999 29.6C 38.200001 17.4 27 12 22.6 14C 18 16 20.6 27.200001 26.200001 38.599998M 31 34C 31.200001 35.599998 32.400002 36.599998 34 37C 35.599998 37.400002 36.799999 35.599998 37 34C 37.200001 32.400002 35.599998 30.799999 34 31C 32.400002 31.200001 31.4 32.400002 31 34"></path><path d="M 11 34C 11 38.970562 21.297451 43 34 43C 46.702549 43 57 38.970562 57 34C 57 29.029438 46.702549 25 34 25C 21.297451 25 11 29.029438 11 34M 22.500608 53.917976C 26.805243 56.403255 35.443565 49.500122 41.794838 38.49939C 48.146111 27.498663 49.805241 16.566088 45.50061 14.080809C 41.195976 11.595526 32.557655 18.498661 26.206381 29.499392C 19.855106 40.500122 18.195976 51.432693 22.50061 53.917976M 26.206381 38.50061C 32.557655 49.501339 41.195976 56.404472 45.50061 53.919193C 49.805241 51.43391 48.146111 40.501335 41.794838 29.500608C 35.443565 18.499878 26.805243 11.596744 22.50061 14.082026C 18.195976 16.567307 19.855106 27.49988 26.206381 38.50061M 31 34C 31 35.656853 32.343147 37 34 37C 35.656853 37 37 35.656853 37 34C 37 32.343147 35.656853 31 34 31C 32.343147 31 31 32.343147 31 34"></path></g></g></g><g id="g-root-tx_speciali_1cxe8p9miexa9-stroke" data-item-order="0" data-item-id="tx_speciali_1cxe8p9miexa9" data-item-class="Label Stroke SceneTarget Indexed" data-item-index="2" data-renderer-id="0" transform="translate(542, 254)"></g></g></g></svg>